<svg width="29" height="34" viewBox="0 0 29 34" fill="none" xmlns="http://www.w3.org/2000/svg">
<path d="M24.3538 18.1784C24.3709 16.8857 24.7226 15.6181 25.3762 14.4938C26.0299 13.3694 26.9642 12.4247 28.0923 11.7476C27.3757 10.7483 26.4302 9.926 25.3311 9.34589C24.232 8.76577 23.0095 8.44385 21.7606 8.40571C19.0966 8.1327 16.514 9.96202 15.1564 9.96202C13.7726 9.96202 11.6825 8.43281 9.4318 8.47802C7.97598 8.52394 6.55716 8.93725 5.3136 9.67768C4.07003 10.4181 3.04412 11.4604 2.33583 12.703C-0.732248 17.8891 1.55627 25.511 4.49529 29.7031C5.96575 31.7558 7.68428 34.0488 9.93298 33.9675C12.1335 33.8784 12.9553 32.5976 15.6114 32.5976C18.243 32.5976 19.014 33.9675 21.3083 33.9158C23.6695 33.8784 25.1572 31.8539 26.5761 29.7818C27.6326 28.3191 28.4456 26.7026 28.985 24.992C27.6132 24.4255 26.4425 23.4774 25.6189 22.2657C24.7954 21.0541 24.3554 19.6326 24.3538 18.1784Z" fill="black"/>
<path d="M20.0205 5.64857C21.308 4.13969 21.9422 2.20027 21.7887 0.242188C19.8218 0.443875 18.0049 1.36165 16.7001 2.81263C16.0621 3.52148 15.5735 4.34614 15.2621 5.23945C14.9508 6.13277 14.8229 7.07724 14.8856 8.01886C15.8694 8.02874 16.8427 7.82056 17.7322 7.40999C18.6216 6.99941 19.404 6.39716 20.0205 5.64857Z" fill="black"/>
</svg>
