<svg width="28" height="28" viewBox="0 0 28 28" fill="none" xmlns="http://www.w3.org/2000/svg">
<circle cx="14" cy="14" r="14" fill="#B25916"/>
<path d="M14 7.4375C10.3819 7.4375 7.4375 10.2837 7.4375 13.7812C7.4375 17.2788 10.3819 20.125 14 20.125C17.6181 20.125 20.5625 17.2788 20.5625 13.7812C20.5625 10.2837 17.6181 7.4375 14 7.4375ZM14 8.49479C17.027 8.49479 19.4688 10.8552 19.4688 13.7812C19.4701 15.0468 19.0006 16.2706 18.146 17.2294C17.2915 18.1882 16.1088 18.8179 14.8138 19.0037V15.3228H16.3713L16.6157 13.7934H14.8138V12.9581C14.8138 12.3238 15.0298 11.7597 15.6439 11.7597H16.631V10.4254C16.4577 10.4027 16.0907 10.3535 15.3973 10.3535C13.9491 10.3535 13.1004 11.0926 13.1004 12.7768V13.7934H11.6118V15.3228H13.1004V18.9905C11.8233 18.7873 10.6626 18.1518 9.82553 17.1975C8.98852 16.2433 8.52977 15.0324 8.53125 13.7812C8.53125 10.8552 10.973 8.49479 14 8.49479Z" fill="white"/>
</svg>
