<svg width="40" height="40" viewBox="0 0 40 40" fill="none" xmlns="http://www.w3.org/2000/svg">
<path opacity="0.5" d="M29.9998 35H25V39.9998H29.9998V35Z" fill="#0074BF"/>
<path opacity="0.7" d="M24.9998 35H20V39.9998H24.9998V35Z" fill="#0074BF"/>
<path opacity="0.7" d="M19.9998 35H15V39.9998H19.9998V35Z" fill="#0074BF"/>
<path opacity="0.5" d="M14.9998 35H10V39.9998H14.9998V35Z" fill="#0074BF"/>
<path opacity="0.7" d="M34.9998 30.0005H30V35.0003H34.9998V30.0005Z" fill="#0082BF"/>
<path opacity="0.8" d="M29.9998 30.0005H25V35.0003H29.9998V30.0005Z" fill="#0082BF"/>
<path d="M24.9998 30.0005H20V35.0003H24.9998V30.0005Z" fill="#0082BF"/>
<path d="M19.9998 30.0005H15V35.0003H19.9998V30.0005Z" fill="#0082BF"/>
<path opacity="0.8" d="M14.9998 30.0005H10V35.0003H14.9998V30.0005Z" fill="#0082BF"/>
<path opacity="0.7" d="M9.99979 30.0005H5V35.0003H9.99979V30.0005Z" fill="#0082BF"/>
<path opacity="0.5" d="M39.9998 25H35V29.9998H39.9998V25Z" fill="#008FBF"/>
<path opacity="0.8" d="M34.9998 25H30V29.9998H34.9998V25Z" fill="#008FBF"/>
<path d="M29.9998 25H25V29.9998H29.9998V25Z" fill="#008FBF"/>
<path d="M24.9998 25H20V29.9998H24.9998V25Z" fill="#008FBF"/>
<path d="M19.9998 25H15V29.9998H19.9998V25Z" fill="#008FBF"/>
<path d="M14.9998 25H10V29.9998H14.9998V25Z" fill="#008FBF"/>
<path opacity="0.8" d="M9.99979 25H5V29.9998H9.99979V25Z" fill="#008FBF"/>
<path opacity="0.5" d="M4.99979 25H0V29.9998H4.99979V25Z" fill="#008FBF"/>
<path opacity="0.7" d="M39.9998 20H35V24.9998H39.9998V20Z" fill="#009DBF"/>
<path d="M34.9998 20H30V24.9998H34.9998V20Z" fill="#009DBF"/>
<path d="M29.9998 20H25V24.9998H29.9998V20Z" fill="#009DBF"/>
<path d="M24.9998 20H20V24.9998H24.9998V20Z" fill="#009DBF"/>
<path d="M19.9998 20H15V24.9998H19.9998V20Z" fill="#009DBF"/>
<path d="M14.9998 20H10V24.9998H14.9998V20Z" fill="#009DBF"/>
<path d="M9.99979 20H5V24.9998H9.99979V20Z" fill="#009DBF"/>
<path opacity="0.7" d="M4.99979 20H0V24.9998H4.99979V20Z" fill="#009DBF"/>
<path opacity="0.7" d="M39.9998 15H35V19.9998H39.9998V15Z" fill="#00ABBF"/>
<path d="M34.9998 15H30V19.9998H34.9998V15Z" fill="#00ABBF"/>
<path d="M29.9998 15H25V19.9998H29.9998V15Z" fill="#00ABBF"/>
<path d="M24.9998 15H20V19.9998H24.9998V15Z" fill="#00ABBF"/>
<path d="M19.9998 15H15V19.9998H19.9998V15Z" fill="#00ABBF"/>
<path d="M14.9998 15H10V19.9998H14.9998V15Z" fill="#00ABBF"/>
<path d="M9.99979 15H5V19.9998H9.99979V15Z" fill="#00ABBF"/>
<path opacity="0.7" d="M4.99979 15H0V19.9998H4.99979V15Z" fill="#00ABBF"/>
<path opacity="0.5" d="M39.9998 10.0005H35V15.0003H39.9998V10.0005Z" fill="#00B9BF"/>
<path opacity="0.8" d="M34.9998 10.0005H30V15.0003H34.9998V10.0005Z" fill="#00B9BF"/>
<path d="M29.9998 10.0005H25V15.0003H29.9998V10.0005Z" fill="#00B9BF"/>
<path d="M24.9998 10.0005H20V15.0003H24.9998V10.0005Z" fill="#00B9BF"/>
<path d="M19.9998 10.0005H15V15.0003H19.9998V10.0005Z" fill="#00B9BF"/>
<path d="M14.9998 10.0005H10V15.0003H14.9998V10.0005Z" fill="#00B9BF"/>
<path opacity="0.8" d="M9.99979 10.0005H5V15.0003H9.99979V10.0005Z" fill="#00B9BF"/>
<path opacity="0.5" d="M4.99979 10.0005H0V15.0003H4.99979V10.0005Z" fill="#00B9BF"/>
<path opacity="0.7" d="M34.9998 5H30V9.99979H34.9998V5Z" fill="#00C6BF"/>
<path opacity="0.8" d="M29.9998 5H25V9.99979H29.9998V5Z" fill="#00C6BF"/>
<path d="M24.9998 5H20V9.99979H24.9998V5Z" fill="#00C6BF"/>
<path d="M19.9998 5H15V9.99979H19.9998V5Z" fill="#00C6BF"/>
<path opacity="0.8" d="M14.9998 5H10V9.99979H14.9998V5Z" fill="#00C6BF"/>
<path opacity="0.7" d="M9.99979 5H5V9.99979H9.99979V5Z" fill="#00C6BF"/>
<path opacity="0.5" d="M29.9998 0H25V4.99979H29.9998V0Z" fill="#00D4BF"/>
<path opacity="0.7" d="M24.9998 0H20V4.99979H24.9998V0Z" fill="#00D4BF"/>
<path opacity="0.7" d="M19.9998 0H15V4.99979H19.9998V0Z" fill="#00D4BF"/>
<path opacity="0.5" d="M14.9998 0H10V4.99979H14.9998V0Z" fill="#00D4BF"/>
<path d="M13.1653 18.4228L14.5585 15.3046C15.066 14.5052 14.9989 13.5258 14.4432 12.9702C14.3691 12.8962 14.2871 12.8305 14.1986 12.7745C14.008 12.6575 13.7942 12.5835 13.572 12.5576C13.3499 12.5317 13.1248 12.5545 12.9124 12.6244C12.43 12.7744 12.0178 13.0933 11.7514 13.5225C11.7514 13.5225 9.844 17.9725 9.13413 19.9727C8.42426 21.973 8.70788 25.6409 11.4445 28.3834C14.347 31.2859 18.5499 31.9493 21.2302 29.9375C21.3422 29.8811 21.4477 29.8124 21.5445 29.7326L29.8042 22.8354C30.2056 22.5037 30.7993 21.8204 30.2661 21.0408C29.7461 20.2804 28.7609 20.7979 28.3587 21.0549L23.6052 24.5114C23.583 24.5298 23.5573 24.5435 23.5296 24.5517C23.5019 24.5599 23.4729 24.5624 23.4442 24.559C23.4155 24.5557 23.3878 24.5466 23.3628 24.5323C23.3377 24.518 23.3158 24.4988 23.2984 24.4758C23.1773 24.3273 23.1558 23.9342 23.3457 23.7783L30.6326 17.5943C31.2621 17.0271 31.35 16.2028 30.84 15.638C30.3424 15.0849 29.5521 15.1015 28.9168 15.6737L22.3563 20.8028C22.3256 20.8279 22.2901 20.8464 22.252 20.8572C22.2139 20.8681 22.174 20.871 22.1347 20.8659C22.0954 20.8608 22.0576 20.8477 22.0236 20.8274C21.9895 20.8072 21.96 20.7802 21.9367 20.7481C21.8073 20.603 21.7576 20.355 21.9035 20.2099L29.334 12.9992C29.6154 12.7367 29.7812 12.3731 29.7949 11.9885C29.8085 11.6038 29.669 11.2295 29.4069 10.9476C29.277 10.8107 29.1204 10.7017 28.9469 10.6275C28.7733 10.5532 28.5865 10.5151 28.3977 10.5155C28.009 10.5113 27.6342 10.6602 27.3545 10.9301L19.7623 18.062C19.5807 18.2436 19.2249 18.062 19.1818 17.8497C19.1739 17.8118 19.1757 17.7724 19.187 17.7353C19.1983 17.6982 19.2188 17.6646 19.2465 17.6374L25.0582 11.0205C25.1986 10.8895 25.3113 10.7316 25.3895 10.5562C25.4677 10.3807 25.5097 10.1913 25.5132 9.9993C25.5167 9.80725 25.4816 9.61647 25.4098 9.43829C25.3381 9.26012 25.2313 9.09819 25.0957 8.96215C24.9601 8.82611 24.7985 8.71874 24.6206 8.64642C24.4426 8.5741 24.2519 8.5383 24.0599 8.54118C23.8678 8.54405 23.6783 8.58552 23.5026 8.66313C23.3269 8.74074 23.1686 8.85289 23.0372 8.99292L14.2243 18.7362C13.9084 19.0522 13.4431 19.068 13.2217 18.8847C13.1536 18.8305 13.1095 18.7517 13.0989 18.6653C13.0884 18.5789 13.1122 18.4918 13.1653 18.4228Z" fill="white"/>
</svg>
