<svg width="64" height="64" viewBox="0 0 64 64" fill="none" xmlns="http://www.w3.org/2000/svg">
<circle cx="32" cy="32" r="32" fill="#B25916"/>
<path d="M32 17C23.73 17 17 23.5057 17 31.5C17 39.4943 23.73 46 32 46C40.27 46 47 39.4943 47 31.5C47 23.5057 40.27 17 32 17ZM32 19.4167C38.9188 19.4167 44.5 24.8119 44.5 31.5C44.503 34.3927 43.43 37.19 41.4767 39.3815C39.5234 41.5729 36.82 43.0124 33.86 43.4371V35.0235H37.42L37.9788 31.5278H33.86V29.6186C33.86 28.1686 34.3538 26.8793 35.7575 26.8793H38.0138V23.8295C37.6175 23.7775 36.7787 23.6652 35.1938 23.6652C31.8837 23.6652 29.9437 25.3544 29.9437 29.2042V31.5278H26.5413V35.0235H29.9437V43.4069C27.0247 42.9425 24.3715 41.4899 22.4584 39.3087C20.5452 37.1275 19.4966 34.3597 19.5 31.5C19.5 24.8119 25.0813 19.4167 32 19.4167Z" fill="white"/>
</svg>
