<svg width="64" height="64" viewBox="0 0 64 64" fill="none" xmlns="http://www.w3.org/2000/svg">
<circle cx="32" cy="32" r="32" fill="#B25916"/>
<path d="M44.8571 20H19.1429C18.5745 20 18.0295 20.2529 17.6276 20.7029C17.2258 21.153 17 21.7635 17 22.4V41.6C17 42.2365 17.2258 42.847 17.6276 43.2971C18.0295 43.7471 18.5745 44 19.1429 44H44.8571C45.4255 44 45.9705 43.7471 46.3724 43.2971C46.7742 42.847 47 42.2365 47 41.6V22.4C47 21.7635 46.7742 21.153 46.3724 20.7029C45.9705 20.2529 45.4255 20 44.8571 20ZM42.5 22.4L32 30.536L21.5 22.4H42.5ZM19.1429 41.6V23.492L31.3893 32.984C31.5686 33.1234 31.7817 33.198 32 33.198C32.2183 33.198 32.4314 33.1234 32.6107 32.984L44.8571 23.492V41.6H19.1429Z" fill="white"/>
</svg>
