<svg width="64" height="64" viewBox="0 0 64 64" fill="none" xmlns="http://www.w3.org/2000/svg">
<circle cx="32" cy="32" r="32" fill="#B25916"/>
<path d="M32.0015 27.5C30.808 27.5 29.6634 27.9741 28.8195 28.818C27.9756 29.6619 27.5015 30.8065 27.5015 32C27.5015 33.1935 27.9756 34.3381 28.8195 35.182C29.6634 36.0259 30.808 36.5 32.0015 36.5C33.195 36.5 34.3396 36.0259 35.1835 35.182C36.0274 34.3381 36.5015 33.1935 36.5015 32C36.5015 30.8065 36.0274 29.6619 35.1835 28.818C34.3396 27.9741 33.195 27.5 32.0015 27.5ZM32.0015 24.5C33.9906 24.5 35.8983 25.2902 37.3048 26.6967C38.7113 28.1032 39.5015 30.0109 39.5015 32C39.5015 33.9891 38.7113 35.8968 37.3048 37.3033C35.8983 38.7098 33.9906 39.5 32.0015 39.5C30.0124 39.5 28.1047 38.7098 26.6982 37.3033C25.2917 35.8968 24.5015 33.9891 24.5015 32C24.5015 30.0109 25.2917 28.1032 26.6982 26.6967C28.1047 25.2902 30.0124 24.5 32.0015 24.5ZM41.7515 24.125C41.7515 24.6223 41.554 25.0992 41.2023 25.4508C40.8507 25.8025 40.3738 26 39.8765 26C39.3792 26 38.9023 25.8025 38.5507 25.4508C38.199 25.0992 38.0015 24.6223 38.0015 24.125C38.0015 23.6277 38.199 23.1508 38.5507 22.7992C38.9023 22.4475 39.3792 22.25 39.8765 22.25C40.3738 22.25 40.8507 22.4475 41.2023 22.7992C41.554 23.1508 41.7515 23.6277 41.7515 24.125ZM32.0015 20C28.2905 20 27.6845 20.0105 25.958 20.087C24.782 20.1425 23.993 20.3 23.261 20.585C22.6487 20.8106 22.0951 21.171 21.641 21.6395C21.1719 22.0934 20.811 22.6471 20.585 23.2595C20.3 23.9945 20.1425 24.782 20.0885 25.9565C20.0105 27.6125 20 28.1915 20 32C20 35.7125 20.0105 36.317 20.087 38.0435C20.1425 39.218 20.3 40.0085 20.5835 40.739C20.8385 41.3915 21.1385 41.861 21.6365 42.359C22.142 42.863 22.6115 43.1645 23.2565 43.4135C23.9975 43.7 24.7865 43.859 25.9565 43.913C27.6125 43.991 28.1915 44 32 44C35.7125 44 36.317 43.9895 38.0435 43.913C39.2165 43.8575 40.0055 43.7 40.739 43.4165C41.3513 43.1909 41.9049 42.8305 42.359 42.362C42.8645 41.858 43.166 41.3885 43.415 40.742C43.7 40.004 43.859 39.215 43.913 38.042C43.991 36.3875 44 35.807 44 32C44 28.289 43.9895 27.683 43.913 25.9565C43.8575 24.7835 43.6985 23.9915 43.415 23.2595C43.1894 22.6472 42.829 22.0936 42.3605 21.6395C41.9066 21.1704 41.3529 20.8095 40.7405 20.5835C40.0055 20.2985 39.2165 20.141 38.0435 20.087C36.389 20.009 35.81 20 32 20M32 17C36.0755 17 36.584 17.015 38.1845 17.09C39.7805 17.165 40.8695 17.4155 41.825 17.7875C42.815 18.1685 43.649 18.6845 44.483 19.517C45.246 20.2666 45.8363 21.1737 46.2125 22.175C46.583 23.1305 46.835 24.2195 46.91 25.817C46.9805 27.416 47 27.9245 47 32C47 36.0755 46.985 36.584 46.91 38.183C46.835 39.782 46.583 40.868 46.2125 41.825C45.8363 42.8263 45.246 43.7334 44.483 44.483C43.7334 45.246 42.8263 45.8363 41.825 46.2125C40.8695 46.583 39.7805 46.835 38.1845 46.91C36.584 46.9805 36.0755 47 32 47C27.9245 47 27.416 46.985 25.8155 46.91C24.2195 46.835 23.132 46.583 22.175 46.2125C21.1737 45.8363 20.2666 45.246 19.517 44.483C18.754 43.7334 18.1637 42.8263 17.7875 41.825C17.4155 40.8695 17.165 39.7805 17.09 38.183C17.018 36.584 17 36.0755 17 32C17 27.9245 17.015 27.416 17.09 25.817C17.165 24.218 17.4155 23.132 17.7875 22.175C18.1637 21.1737 18.754 20.2666 19.517 19.517C20.2666 18.754 21.1737 18.1637 22.175 17.7875C23.1305 17.4155 24.218 17.165 25.8155 17.09C27.4175 17.0195 27.926 17 32.0015 17" fill="white"/>
</svg>
