<svg width="28" height="28" viewBox="0 0 28 28" fill="none" xmlns="http://www.w3.org/2000/svg">
<circle cx="14" cy="14" r="14" fill="#B25916"/>
<path d="M19.625 8.75H8.375C8.12636 8.75 7.8879 8.86062 7.71209 9.05754C7.53627 9.25445 7.4375 9.52152 7.4375 9.8V18.2C7.4375 18.4785 7.53627 18.7455 7.71209 18.9425C7.8879 19.1394 8.12636 19.25 8.375 19.25H19.625C19.8736 19.25 20.1121 19.1394 20.2879 18.9425C20.4637 18.7455 20.5625 18.4785 20.5625 18.2V9.8C20.5625 9.52152 20.4637 9.25445 20.2879 9.05754C20.1121 8.86062 19.8736 8.75 19.625 8.75ZM18.5938 9.8L14 13.3595L9.40625 9.8H18.5938ZM8.375 18.2V10.2777L13.7328 14.4305C13.8113 14.4915 13.9045 14.5241 14 14.5241C14.0955 14.5241 14.1887 14.4915 14.2672 14.4305L19.625 10.2777V18.2H8.375Z" fill="white"/>
</svg>
