<svg width="28" height="28" viewBox="0 0 28 28" fill="none" xmlns="http://www.w3.org/2000/svg">
<circle cx="14" cy="14" r="14" fill="#B25916"/>
<path d="M14.0007 12.0312C13.4785 12.0312 12.9778 12.2387 12.6085 12.6079C12.2393 12.9771 12.0319 13.4779 12.0319 14C12.0319 14.5221 12.2393 15.0229 12.6085 15.3921C12.9778 15.7613 13.4785 15.9688 14.0007 15.9688C14.5228 15.9688 15.0236 15.7613 15.3928 15.3921C15.762 15.0229 15.9694 14.5221 15.9694 14C15.9694 13.4779 15.762 12.9771 15.3928 12.6079C15.0236 12.2387 14.5228 12.0312 14.0007 12.0312ZM14.0007 10.7188C14.8709 10.7188 15.7055 11.0645 16.3209 11.6798C16.9362 12.2952 17.2819 13.1298 17.2819 14C17.2819 14.8702 16.9362 15.7048 16.3209 16.3202C15.7055 16.9355 14.8709 17.2812 14.0007 17.2812C13.1304 17.2812 12.2958 16.9355 11.6805 16.3202C11.0651 15.7048 10.7194 14.8702 10.7194 14C10.7194 13.1298 11.0651 12.2952 11.6805 11.6798C12.2958 11.0645 13.1304 10.7188 14.0007 10.7188ZM18.2663 10.5547C18.2663 10.7722 18.1799 10.9809 18.026 11.1347C17.8722 11.2886 17.6635 11.375 17.446 11.375C17.2284 11.375 17.0198 11.2886 16.8659 11.1347C16.7121 10.9809 16.6257 10.7722 16.6257 10.5547C16.6257 10.3371 16.7121 10.1285 16.8659 9.97464C17.0198 9.8208 17.2284 9.73438 17.446 9.73438C17.6635 9.73438 17.8722 9.8208 18.026 9.97464C18.1799 10.1285 18.2663 10.3371 18.2663 10.5547ZM14.0007 8.75C12.3771 8.75 12.112 8.75459 11.3566 8.78806C10.8421 8.81234 10.4969 8.88125 10.1767 9.00594C9.90883 9.10462 9.6666 9.26229 9.46794 9.46728C9.26271 9.66587 9.10481 9.90811 9.00594 10.176C8.88125 10.4976 8.81234 10.8421 8.78872 11.356C8.75459 12.0805 8.75 12.3338 8.75 14C8.75 15.6242 8.75459 15.8887 8.78806 16.644C8.81234 17.1579 8.88125 17.5037 9.00528 17.8233C9.11684 18.1088 9.24809 18.3142 9.46597 18.5321C9.68712 18.7526 9.89253 18.8845 10.1747 18.9934C10.4989 19.1187 10.8441 19.1883 11.356 19.2119C12.0805 19.2461 12.3338 19.25 14 19.25C15.6242 19.25 15.8887 19.2454 16.644 19.2119C17.1572 19.1877 17.5024 19.1187 17.8233 18.9947C18.0912 18.896 18.3334 18.7384 18.5321 18.5334C18.7532 18.3129 18.8851 18.1075 18.9941 17.8246C19.1188 17.5017 19.1883 17.1566 19.2119 16.6434C19.2461 15.9195 19.25 15.6656 19.25 14C19.25 12.3764 19.2454 12.1113 19.2119 11.356C19.1877 10.8428 19.1181 10.4963 18.9941 10.176C18.8954 9.90817 18.7377 9.66594 18.5327 9.46728C18.3341 9.26205 18.0919 9.10415 17.824 9.00528C17.5024 8.88059 17.1572 8.81169 16.644 8.78806C15.9202 8.75394 15.6669 8.75 14 8.75M14 7.4375C15.783 7.4375 16.0055 7.44406 16.7057 7.47687C17.404 7.50969 17.8804 7.61928 18.2984 7.78203C18.7316 7.94872 19.0964 8.17447 19.4613 8.53869C19.7951 8.86664 20.0534 9.2635 20.218 9.70156C20.3801 10.1196 20.4903 10.596 20.5231 11.2949C20.554 11.9945 20.5625 12.217 20.5625 14C20.5625 15.783 20.5559 16.0055 20.5231 16.7051C20.4903 17.4046 20.3801 17.8797 20.218 18.2984C20.0534 18.7365 19.7951 19.1334 19.4613 19.4613C19.1334 19.7951 18.7365 20.0534 18.2984 20.218C17.8804 20.3801 17.404 20.4903 16.7057 20.5231C16.0055 20.554 15.783 20.5625 14 20.5625C12.217 20.5625 11.9945 20.5559 11.2943 20.5231C10.596 20.4903 10.1202 20.3801 9.70156 20.218C9.2635 20.0534 8.86664 19.7951 8.53869 19.4613C8.20486 19.1334 7.94663 18.7365 7.78203 18.2984C7.61928 17.8804 7.50969 17.404 7.47687 16.7051C7.44537 16.0055 7.4375 15.783 7.4375 14C7.4375 12.217 7.44406 11.9945 7.47687 11.2949C7.50969 10.5954 7.61928 10.1202 7.78203 9.70156C7.94663 9.2635 8.20486 8.86664 8.53869 8.53869C8.86664 8.20486 9.2635 7.94663 9.70156 7.78203C10.1196 7.61928 10.5954 7.50969 11.2943 7.47687C11.9952 7.44603 12.2176 7.4375 14.0007 7.4375" fill="white"/>
</svg>
