<svg width="32" height="32" viewBox="0 0 32 32" fill="none" xmlns="http://www.w3.org/2000/svg">
<path fill-rule="evenodd" clip-rule="evenodd" d="M21.3333 4.32373H10.6667C6.98477 4.32373 4 7.3085 4 10.9904V21.6571C4 25.3389 6.98477 28.3237 10.6667 28.3237H21.3333C25.0152 28.3237 28 25.3389 28 21.6571V10.9904C28 7.3085 25.0152 4.32373 21.3333 4.32373ZM25.6667 21.6571C25.6593 24.0472 23.7235 25.9831 21.3333 25.9904H10.6667C8.27647 25.9831 6.34065 24.0472 6.33333 21.6571V10.9904C6.34065 8.6002 8.27647 6.66438 10.6667 6.65706H21.3333C23.7235 6.66438 25.6593 8.6002 25.6667 10.9904V21.6571ZM22.3333 11.3237C23.0697 11.3237 23.6667 10.7268 23.6667 9.9904C23.6667 9.25402 23.0697 8.65706 22.3333 8.65706C21.5969 8.65706 21 9.25402 21 9.9904C21 10.7268 21.5969 11.3237 22.3333 11.3237ZM16 10.3237C12.6863 10.3237 10 13.01 10 16.3237C10 19.6375 12.6863 22.3237 16 22.3237C19.3137 22.3237 22 19.6375 22 16.3237C22.0036 14.7313 21.3725 13.2032 20.2465 12.0772C19.1205 10.9512 17.5924 10.3202 16 10.3237ZM12.3333 16.3237C12.3333 18.3488 13.9749 19.9904 16 19.9904C18.0251 19.9904 19.6667 18.3488 19.6667 16.3237C19.6667 14.2987 18.0251 12.6571 16 12.6571C13.9749 12.6571 12.3333 14.2987 12.3333 16.3237Z" fill="white"/>
</svg>
