<svg width="32" height="32" viewBox="0 0 32 32" fill="none" xmlns="http://www.w3.org/2000/svg">
<path fill-rule="evenodd" clip-rule="evenodd" d="M6 4.32373C4.89543 4.32373 4 5.21916 4 6.32373V26.3237C4 27.4283 4.89543 28.3237 6 28.3237H26C27.1045 28.3237 28 27.4283 28 26.3237V6.32373C28 5.21916 27.1045 4.32373 26 4.32373H6ZM11.361 9.66069C11.3685 10.9357 10.4141 11.7213 9.28164 11.7157C8.21476 11.7101 7.28476 10.8607 7.29039 9.66257C7.29601 8.53569 8.18664 7.63006 9.34352 7.65632C10.5173 7.68257 11.3685 8.5432 11.361 9.66069ZM16.3729 13.3394H13.0129H13.0111V24.7525H16.5623V24.4863C16.5623 23.9797 16.5619 23.4731 16.5615 22.9663C16.5604 21.6145 16.5592 20.2613 16.5661 18.91C16.568 18.5819 16.5829 18.2407 16.6673 17.9275C16.9841 16.7575 18.0361 16.0019 19.2099 16.1876C19.9636 16.3056 20.4623 16.7425 20.6723 17.4532C20.8017 17.8975 20.8599 18.3756 20.8655 18.8388C20.8807 20.2356 20.8785 21.6324 20.8764 23.0293C20.8756 23.5224 20.8748 24.0157 20.8748 24.5088V24.7507H24.4373V24.4769C24.4373 23.8743 24.4371 23.2717 24.4367 22.6692C24.436 21.1632 24.4352 19.6572 24.4392 18.1507C24.4411 17.47 24.368 16.7988 24.2011 16.1407C23.9517 15.1619 23.4361 14.3519 22.598 13.7669C22.0036 13.3507 21.3511 13.0825 20.6217 13.0525C20.5387 13.0491 20.4549 13.0446 20.3708 13.04C19.9979 13.0199 19.6188 12.9994 19.2623 13.0713C18.2423 13.2757 17.3461 13.7425 16.6692 14.5656C16.5905 14.66 16.5136 14.7559 16.3988 14.8989L16.3729 14.9313V13.3394ZM7.57552 24.7563H11.1099V13.3468H7.57552V24.7563Z" fill="white"/>
</svg>
