<svg width="105" height="22" viewBox="0 0 105 22" fill="none" xmlns="http://www.w3.org/2000/svg">
<path d="M81.4212 16.2763H83.7102V0.801746H81.4212V16.2763ZM102.038 6.37584L99.4141 13.085H99.3355L96.6123 6.37584H94.1467L98.2303 15.7526L95.9033 20.969H98.2892L104.583 6.37584H102.038ZM89.0573 14.5185C88.3065 14.5185 87.2614 14.1409 87.2614 13.2039C87.2614 12.0106 88.5629 11.5526 89.6878 11.5526C90.6936 11.5526 91.1684 11.7717 91.7792 12.07C91.6014 13.5034 90.3784 14.5185 89.0573 14.5185ZM89.3333 6.0379C87.676 6.0379 85.9587 6.77443 85.2497 8.40717L87.281 9.26253C87.7153 8.40717 88.5237 8.12741 89.3725 8.12741C90.5562 8.12741 91.7596 8.84413 91.7792 10.1191V10.2776C91.3646 10.0387 90.4777 9.68093 89.3921 9.68093C87.2025 9.68093 84.9724 10.8953 84.9724 13.1643C84.9724 15.2352 86.7683 16.5696 88.78 16.5696C90.3195 16.5696 91.1684 15.8727 91.7007 15.0557H91.7792V16.2503H93.9885V10.3172C93.9885 7.57037 91.9571 6.0379 89.3333 6.0379ZM75.1873 8.25986H71.9317V2.95562H75.1873C76.8985 2.95562 77.87 4.38535 77.87 5.60712C77.87 6.80661 76.8985 8.25986 75.1873 8.25986ZM75.1284 0.801746H69.6439V16.2763H71.9317V10.4137H75.1284C77.6651 10.4137 80.159 8.55942 80.159 5.60712C80.159 2.65483 77.6651 0.801746 75.1284 0.801746ZM45.2209 14.521C43.6397 14.521 42.3161 13.1853 42.3161 11.3508C42.3161 9.49648 43.6397 8.13979 45.2209 8.13979C46.7824 8.13979 48.0066 9.49648 48.0066 11.3508C48.0066 13.1853 46.7824 14.521 45.2209 14.521ZM47.8496 7.24234H47.7699C47.2559 6.62465 46.2684 6.06637 45.0234 6.06637C42.4142 6.06637 40.0235 8.3787 40.0235 11.3508C40.0235 14.3019 42.4142 16.5956 45.0234 16.5956C46.2684 16.5956 47.2559 16.0373 47.7699 15.3986H47.8496V16.1574C47.8496 18.1714 46.7824 19.2484 45.0626 19.2484C43.6593 19.2484 42.7896 18.2308 42.4339 17.373L40.4381 18.211C41.0109 19.6073 42.5332 21.3218 45.0626 21.3218C47.7503 21.3218 50.0233 19.7262 50.0233 15.838V6.3845H47.8496V7.24234ZM51.6045 16.2763H53.8971V0.800508H51.6045V16.2763ZM57.2754 11.1713C57.2165 9.1375 58.8369 8.10018 60.0023 8.10018C60.9125 8.10018 61.6828 8.55819 61.9392 9.21673L57.2754 11.1713ZM64.3901 9.41602C63.9558 8.24006 62.631 6.06637 59.9238 6.06637C57.2361 6.06637 55.0036 8.1992 55.0036 11.331C55.0036 14.2821 57.2165 16.5956 60.1801 16.5956C62.5722 16.5956 63.9558 15.1201 64.5287 14.2623L62.75 13.0652C62.1575 13.9429 61.3467 14.521 60.1801 14.521C59.0148 14.521 58.1843 13.9825 57.6507 12.9266L64.6268 10.0139L64.3901 9.41602ZM8.81198 7.68178V9.91488H14.1075C13.9493 11.1713 13.5347 12.0886 12.9029 12.7261C12.1314 13.5047 10.9255 14.3625 8.81198 14.3625C5.55026 14.3625 3.00123 11.7098 3.00123 8.41955C3.00123 5.12807 5.55026 2.47657 8.81198 2.47657C10.571 2.47657 11.8554 3.17473 12.8036 4.07218L14.3651 2.49638C13.0403 1.22014 11.2825 0.242233 8.81198 0.242233C4.34567 0.242233 0.59082 3.91249 0.59082 8.41955C0.59082 12.9266 4.34567 16.5956 8.81198 16.5956C11.2224 16.5956 13.0403 15.7972 14.4633 14.3019C15.9267 12.8263 16.3806 10.7529 16.3806 9.07685C16.3806 8.55819 16.3413 8.08037 16.2616 7.68178H8.81198ZM22.4023 14.521C20.8211 14.521 19.457 13.2051 19.457 11.331C19.457 9.43583 20.8211 8.13979 22.4023 8.13979C23.9822 8.13979 25.3463 9.43583 25.3463 11.331C25.3463 13.2051 23.9822 14.521 22.4023 14.521ZM22.4023 6.06637C19.5159 6.06637 17.1644 8.27967 17.1644 11.331C17.1644 14.3625 19.5159 16.5956 22.4023 16.5956C25.2874 16.5956 27.639 14.3625 27.639 11.331C27.639 8.27967 25.2874 6.06637 22.4023 6.06637ZM33.8263 14.521C32.2451 14.521 30.8811 13.2051 30.8811 11.331C30.8811 9.43583 32.2451 8.13979 33.8263 8.13979C35.4075 8.13979 36.7703 9.43583 36.7703 11.331C36.7703 13.2051 35.4075 14.521 33.8263 14.521ZM33.8263 6.06637C30.9412 6.06637 28.5896 8.27967 28.5896 11.331C28.5896 14.3625 30.9412 16.5956 33.8263 16.5956C36.7114 16.5956 39.063 14.3625 39.063 11.331C39.063 8.27967 36.7114 6.06637 33.8263 6.06637Z" fill="white"/>
</svg>
