<svg width="30" height="34" viewBox="0 0 30 34" fill="none" xmlns="http://www.w3.org/2000/svg">
<path d="M14.022 16.3496L0.369141 31.1674C0.370423 31.1701 0.370423 31.174 0.371705 31.1766C0.791023 32.7856 2.22722 33.9697 3.9327 33.9697C4.61489 33.9697 5.25477 33.7809 5.8036 33.4504L5.8472 33.4242L21.2145 24.3565L14.022 16.3496Z" fill="#EA4335"/>
<path d="M27.8331 13.8264L27.8203 13.8173L21.1856 9.88462L13.7109 16.6864L21.2125 24.355L27.8113 20.4617C28.9679 19.8218 29.754 18.5747 29.754 17.1375C29.754 15.7082 28.9795 14.4677 27.8331 13.8264Z" fill="#FBBC04"/>
<path d="M0.367854 3.0437C0.285786 3.35317 0.242188 3.67838 0.242188 4.01407V30.1984C0.242188 30.5341 0.285786 30.8593 0.369137 31.1675L14.49 16.7286L0.367854 3.0437Z" fill="#4285F4"/>
<path d="M14.1223 17.106L21.1879 9.88192L5.83853 0.781393C5.28072 0.439138 4.6293 0.242443 3.933 0.242443C2.22752 0.242443 0.788763 1.42918 0.369446 3.03948C0.369446 3.04079 0.368164 3.0421 0.368164 3.04341L14.1223 17.106Z" fill="#34A853"/>
</svg>
