<svg width="46" height="10" viewBox="0 0 46 10" fill="none" xmlns="http://www.w3.org/2000/svg">
<path fill-rule="evenodd" clip-rule="evenodd" d="M9.943 8.08316C11.4638 8.08316 12.2511 7.42547 12.6286 7.01605L12.0475 5.5853C11.6374 6.02822 10.9686 6.41419 10.0412 6.41419C8.82065 6.41419 7.80851 5.54137 7.80851 4.00752C7.80851 2.47367 8.77942 1.58819 10.0412 1.58819C11.0241 1.58819 11.8211 2.21387 11.9613 2.40704L12.4989 0.885473C12.3043 0.669967 11.4743 0 9.94263 0C7.77477 0 6.03838 1.5104 6.03838 4.04139C6.03838 6.56196 7.7534 8.08316 9.943 8.08316ZM3.48252 7.94693H5.2189V4.6425C5.2189 3.28023 4.81967 2.24699 3.27746 2.24699C2.49024 2.24699 1.98305 2.65567 1.71352 3.15517C1.71352 3.15517 1.72439 2.54215 1.72439 1.97454V0.11352H0V7.94581H1.72439V5.19857C1.72439 4.37079 1.95081 3.73507 2.67355 3.73507C3.3963 3.73507 3.48252 4.32538 3.48252 5.00652V7.94693ZM18.0863 7.94697H16.4368L16.4035 7.3574L16.391 7.37061C16.1627 7.61312 15.7299 8.07278 14.8826 8.07278C13.9455 8.07278 12.9521 7.53904 12.9521 6.29029C12.9521 5.04155 14.0414 4.62133 15.0228 4.57592L16.3604 4.51935V4.39466C16.3604 3.80434 15.9611 3.49765 15.271 3.49765C14.5914 3.49765 13.9121 3.81551 13.6422 3.99714L13.1894 2.81651C13.6422 2.5783 14.4729 2.2489 15.4652 2.2489C16.4575 2.2489 17.0291 2.48711 17.4497 2.89616C17.8595 3.30559 18.087 3.84975 18.087 4.79217L18.0863 7.94697ZM16.3712 5.48336L15.5192 5.53993C14.9906 5.56264 14.678 5.80047 14.678 6.22106C14.678 6.65245 15.0123 6.91374 15.4869 6.91374C15.9506 6.91374 16.2633 6.59587 16.3712 6.40307V5.48336ZM20.9011 7.24268C21.234 7.76488 21.7963 8.07158 22.5835 8.07158C24.1261 8.07158 25.0985 6.79864 25.0985 5.15275C25.0985 3.50686 24.1279 2.24658 22.5962 2.24658C21.7873 2.24658 21.2156 2.5771 20.8272 3.06543H20.8055L20.8164 2.35005H19.1767V9.99997H20.9011V7.24268ZM20.8471 5.13116C20.8471 4.26988 21.3539 3.67957 22.0875 3.67957V3.67808C22.8324 3.67808 23.3388 4.26988 23.3388 5.13116C23.3388 5.99244 22.8316 6.58276 22.0875 6.58276C21.3539 6.58276 20.8471 5.99244 20.8471 5.13116ZM29.098 3.73509H27.9224V5.74499C27.9224 6.22179 27.9872 6.33531 28.0723 6.43767C28.1473 6.52848 28.2556 6.57389 28.482 6.57389C28.6593 6.56981 28.8345 6.53517 28.9997 6.47154L29.086 7.89075C28.6867 8.00841 28.2728 8.06956 27.8564 8.07239C27.2416 8.07239 26.8319 7.87921 26.562 7.5513C26.2921 7.22339 26.1845 6.75665 26.1845 5.90504V3.73509H25.4295V2.36129H26.1845V0.840088H27.9209V2.36129H29.0965L29.098 3.73509ZM34.1952 7.40623C34.1971 7.40454 34.1986 7.40315 34.1999 7.40208L33.7913 6.02902C33.7913 6.02902 33.2507 6.57393 32.4418 6.57393C31.6328 6.57393 31.1042 6.01748 31.1042 5.13201C31.1042 4.24653 31.6868 3.71279 32.42 3.71279C32.9218 3.71284 33.4073 3.88986 33.7898 4.21229L34.1673 2.83848C34.1673 2.83848 33.5525 2.24817 32.1936 2.24817C30.7376 2.24817 29.3679 3.29257 29.3679 5.16588C29.3679 7.02764 30.7159 8.07205 32.1722 8.07205C33.4965 8.07205 34.0722 7.52341 34.1837 7.41717C34.1883 7.41273 34.1922 7.40906 34.1952 7.40623ZM40.1426 7.94693H38.4062V5.00652C38.4062 4.32539 38.32 3.73507 37.5973 3.73507C36.8745 3.73507 36.6481 4.3708 36.6481 5.19969V7.94693H34.9237V0.113525H36.6481V1.97455C36.6481 2.54216 36.6372 3.15518 36.6372 3.15518C36.9068 2.65568 37.414 2.247 38.2012 2.247C39.7434 2.247 40.1426 3.28024 40.1426 4.64251V7.94693ZM44.3498 7.94697H45.9992L46 4.79217C46 3.84975 45.7725 3.30559 45.3627 2.89616C44.9421 2.48711 44.3704 2.2489 43.3782 2.2489C42.3859 2.2489 41.5552 2.5783 41.1024 2.81651L41.5563 3.9964C41.8262 3.81476 42.5055 3.4969 43.1851 3.4969C43.8753 3.4969 44.2745 3.8036 44.2745 4.39391V4.5186L42.937 4.57518C41.9556 4.62059 40.8662 5.0408 40.8662 6.28955C40.8662 7.53829 41.8596 8.07203 42.7968 8.07203C43.6441 8.07203 44.0768 7.61237 44.3052 7.36987L44.3176 7.35666L44.3498 7.94697ZM43.4322 5.53993L44.2842 5.48336V6.40307C44.1763 6.59587 43.8636 6.91373 43.3999 6.91373C42.9253 6.91373 42.591 6.65245 42.591 6.22106C42.591 5.80047 42.9036 5.56263 43.4322 5.53993Z" fill="#4D4D4D"/>
</svg>
